<svg width="42" height="40" viewBox="0 0 42 40" fill="none" xmlns="http://www.w3.org/2000/svg">
<path d="M0.919371 20.5441C0.87491 9.79886 9.54959 1.05209 20.2948 1.00763L22.3204 0.99925C33.0656 0.954789 41.8124 9.62947 41.8569 20.3747V20.3747C41.9013 31.1199 33.2266 39.8667 22.4814 39.9112L20.4558 39.9195C9.71059 39.964 0.963831 31.2893 0.919371 20.5441V20.5441Z" fill="white"/>
<path fill-rule="evenodd" clip-rule="evenodd" d="M8.56811 19.3531C14.5249 16.8573 18.4972 15.2117 20.4848 14.4163C26.1599 12.1455 27.3394 11.7502 28.1093 11.7341C28.2786 11.7306 28.6573 11.7689 28.9034 11.957C29.1111 12.1159 29.169 12.3314 29.1969 12.4827C29.2247 12.634 29.2601 12.9789 29.2342 13.2485C28.9389 16.3262 27.637 23.7975 26.9731 27.2459C26.6922 28.7051 26.1293 29.1963 25.5825 29.2464C24.3943 29.3553 23.4882 28.5084 22.3339 27.7958C20.5278 26.6808 19.5071 25.9862 17.7539 24.8981C15.7278 23.6407 17.035 22.9395 18.182 21.7977C18.4821 21.4989 23.7007 16.9492 23.8003 16.5381C23.8128 16.4866 23.8238 16.2951 23.7037 16.1945C23.5836 16.0939 23.4071 16.1292 23.2797 16.1572C23.0992 16.1969 20.2287 18.0169 14.6683 21.6172C13.8536 22.1538 13.1148 22.4166 12.4518 22.4057C11.7209 22.3938 10.3135 22.0218 9.26704 21.7032C7.98354 21.3125 6.96388 21.1073 7.04981 20.4343C7.09457 20.0837 7.60067 19.7233 8.56811 19.3531Z" fill="url(#paint0_linear_37701_2)"/>
<defs>
<linearGradient id="paint0_linear_37701_2" x1="28.8699" y1="11.8476" x2="17.4698" y2="25.0041" gradientUnits="userSpaceOnUse">
<stop stop-color="#475361"/>
<stop offset="1" stop-color="#1D1D1D"/>
</linearGradient>
</defs>
</svg>
